<svg width="130" height="140" viewBox="0 0 130 140" fill="none" xmlns="http://www.w3.org/2000/svg">
<g clip-path="url(#clip0_12984_296267)">
<rect width="92.1412" height="126.944" rx="5.18918" transform="matrix(0.991047 -0.133515 0.0817241 0.996655 0.348633 12.9785)" fill="white"/>
<rect width="28.9535" height="6.9189" rx="3.45945" transform="matrix(0.991047 -0.133515 0.0817241 0.996655 6.05078 24.3945)" fill="#E9EBF2"/>
<rect width="45.8719" height="6.9189" rx="3.45945" transform="matrix(0.991047 -0.133515 0.0817241 0.996655 37.7451 20.125)" fill="#E9EBF2"/>
<rect width="77.8524" height="6.9189" rx="3.45945" transform="matrix(0.991047 -0.133515 0.0817241 0.996655 6.89844 34.7383)" fill="#E9EBF2"/>
<rect width="77.8524" height="6.9189" rx="3.45945" transform="matrix(0.991047 -0.133515 0.0817241 0.996655 7.74707 45.082)" fill="#E9EBF2"/>
<rect width="77.8524" height="6.9189" rx="3.45945" transform="matrix(0.991047 -0.133515 0.0817241 0.996655 8.73633 57.1484)" fill="#E9EBF2"/>
<rect width="77.8524" height="6.9189" rx="3.45945" transform="matrix(0.991047 -0.133515 0.0817241 0.996655 9.54883 67.0605)" fill="#E9EBF2"/>
<rect width="77.8524" height="6.9189" rx="3.45945" transform="matrix(0.991047 -0.133515 0.0817241 0.996655 10.3623 76.9746)" fill="#E9EBF2"/>
<circle cx="5.70438" cy="5.70438" r="5.70438" transform="matrix(0.991047 -0.133515 0.0817241 0.996655 11.3516 89.043)" fill="#EA3E83"/>
<rect width="24.3327" height="6.32512" rx="3.16256" transform="matrix(0.991047 -0.133515 0.0817241 0.996655 25.8662 89.6484)" fill="#E9EBF2"/>
</g>
<rect x="0.23195" y="0.186624" width="91.7088" height="126.511" rx="4.97296" transform="matrix(0.991047 -0.133515 0.0817241 0.996655 0.335458 13.0101)" stroke="#E9EBF2" stroke-width="0.432431"/>
<rect x="0.224562" y="0.201543" width="91.4676" height="126.715" rx="4.97296" transform="matrix(0.997751 -0.0670244 0.0408525 0.999165 19.1524 9.72811)" fill="white"/>
<rect x="0.224562" y="0.201543" width="91.4676" height="126.715" rx="4.97296" transform="matrix(0.997751 -0.0670244 0.0408525 0.999165 19.1524 9.72811)" stroke="#E9EBF2" stroke-width="0.432431"/>
<rect width="28.9535" height="6.9189" rx="3.45945" transform="matrix(0.997751 -0.0670244 0.0408525 0.999165 24.4004 21.4766)" fill="#E9EBF2"/>
<rect width="45.8719" height="6.9189" rx="3.45945" transform="matrix(0.997751 -0.0670244 0.0408525 0.999165 56.3086 19.334)" fill="#E9EBF2"/>
<rect width="77.8524" height="6.9189" rx="3.45945" transform="matrix(0.997751 -0.0670244 0.0408525 0.999165 24.8242 31.8457)" fill="#E9EBF2"/>
<rect width="77.8524" height="6.9189" rx="3.45945" transform="matrix(0.997751 -0.0670244 0.0408525 0.999165 25.248 42.2168)" fill="#E9EBF2"/>
<rect width="77.8524" height="6.9189" rx="3.45945" transform="matrix(0.997751 -0.0670244 0.0408525 0.999165 25.7432 54.3145)" fill="#E9EBF2"/>
<rect width="77.8524" height="6.9189" rx="3.45945" transform="matrix(0.997751 -0.0670244 0.0408525 0.999165 26.1494 64.252)" fill="#E9EBF2"/>
<rect width="77.8524" height="6.9189" rx="3.45945" transform="matrix(0.997751 -0.0670244 0.0408525 0.999165 26.5557 74.1895)" fill="#E9EBF2"/>
<circle cx="5.70438" cy="5.70438" r="5.70438" transform="matrix(0.997751 -0.0670244 0.0408525 0.999165 27.0498 86.2871)" fill="#BF7AF0"/>
<rect width="24.3327" height="6.32512" rx="3.16256" transform="matrix(0.997751 -0.0670244 0.0408525 0.999165 41.5566 87.8594)" fill="#E9EBF2"/>
<rect x="38.308" y="6.89981" width="91.1923" height="126.54" rx="4.97296" fill="white"/>
<rect x="38.308" y="6.89981" width="91.1923" height="126.54" rx="4.97296" stroke="#E9EBF2" stroke-width="0.432431"/>
<rect x="42.8486" y="18.7754" width="28.9535" height="6.9189" rx="3.45945" fill="#E9EBF2"/>
<rect x="74.8291" y="18.7754" width="45.8719" height="6.9189" rx="3.45945" fill="#E9EBF2"/>
<rect x="42.8486" y="29.1543" width="77.8524" height="6.9189" rx="3.45945" fill="#E9EBF2"/>
<rect x="42.8486" y="39.5312" width="77.8524" height="6.9189" rx="3.45945" fill="#E9EBF2"/>
<rect x="42.8486" y="51.6406" width="77.8524" height="6.9189" rx="3.45945" fill="#E9EBF2"/>
<rect x="42.8486" y="61.5859" width="77.8524" height="6.9189" rx="3.45945" fill="#E9EBF2"/>
<rect x="42.8486" y="71.5332" width="77.8524" height="6.9189" rx="3.45945" fill="#E9EBF2"/>
<circle cx="48.553" cy="89.345" r="5.70438" fill="#3291FF"/>
<rect x="57.2842" y="86.1816" width="24.3327" height="6.32512" rx="3.16256" fill="#E9EBF2"/>
<defs>
<clipPath id="clip0_12984_296267">
<rect width="92.1412" height="126.944" rx="5.18918" transform="matrix(0.991047 -0.133515 0.0817241 0.996655 0.348633 12.9785)" fill="white"/>
</clipPath>
</defs>
</svg>
